
<global>
amp_veltrack=0
ampeg_attack=0.01
ampeg_release=0.4
</global>

<group>
group_label=PP
xf_cccurve=gain
xfin_hicc1=64
xfout_hicc1=127
xfout_locc1=64

<region>
hikey=g#4
hivel=127
lokey=g4
loop_end=271435
loop_mode=loop_continuous
loop_start=96720
loop_xfade=43678
lovel=1
offset=6911
pitch_keycenter=g#4
sample=Cellos_min3rd_PP_G#4.opus
</region>

<region>
hikey=g#3
hivel=127
lokey=g3
loop_end=238167
loop_mode=loop_continuous
loop_start=84866
loop_xfade=38325
lovel=1
offset=994
pitch_keycenter=g#3
sample=Cellos_min3rd_PP_G#3.opus
</region>

<region>
hikey=g#2
hivel=127
lokey=g2
loop_end=239879
loop_mode=loop_continuous
loop_start=85476
loop_xfade=38600
lovel=1
offset=3396
pitch_keycenter=g#2
sample=Cellos_min3rd_PP_G#2.opus
</region>

<region>
hikey=f#4
hivel=127
lokey=f4
loop_end=232482
loop_mode=loop_continuous
loop_start=82840
loop_xfade=37410
lovel=1
offset=1507
pitch_keycenter=f#4
sample=Cellos_min3rd_PP_F#4.opus
</region>

<region>
hikey=f#3
hivel=127
lokey=f3
loop_end=241934
loop_mode=loop_continuous
loop_start=86208
loop_xfade=38931
lovel=1
offset=7334
pitch_keycenter=f#3
sample=Cellos_min3rd_PP_F#3.opus
</region>

<region>
hikey=f#2
hivel=127
lokey=f2
loop_end=233333
loop_mode=loop_continuous
loop_start=83143
loop_xfade=37547
lovel=1
offset=856
pitch_keycenter=f#2
sample=Cellos_min3rd_PP_F#2.opus
</region>

<region>
hikey=C#6
hivel=127
lokey=d#5
loop_end=282472
loop_mode=loop_continuous
loop_start=100653
loop_xfade=45454
lovel=1
offset=694
pitch_keycenter=E5
sample=Cellos_min3rd_PP_E5.opus
</region>

<region>
hikey=e4
hivel=127
lokey=d#4
loop_end=265833
loop_mode=loop_continuous
loop_start=94724
loop_xfade=42777
lovel=1
offset=15456
pitch_keycenter=e4
sample=Cellos_min3rd_PP_E4.opus
</region>

<region>
hikey=e3
hivel=127
lokey=d#3
loop_end=241684
loop_mode=loop_continuous
loop_start=86119
loop_xfade=38891
lovel=1
offset=630
pitch_keycenter=e3
sample=Cellos_min3rd_PP_E3.opus
</region>

<region>
hikey=e2
hivel=127
lokey=d#2
loop_end=252180
loop_mode=loop_continuous
loop_start=89859
loop_xfade=40580
lovel=1
offset=16840
pitch_keycenter=e2
sample=Cellos_min3rd_PP_E2.opus
</region>

<region>
hikey=d5
hivel=127
lokey=c#5
loop_end=262137
loop_mode=loop_continuous
loop_start=93407
loop_xfade=42182
lovel=1
offset=3001
pitch_keycenter=d5
sample=Cellos_min3rd_PP_D5.opus
</region>

<region>
hikey=d4
hivel=127
lokey=c#4
loop_end=243797
loop_mode=loop_continuous
loop_start=86872
loop_xfade=39231
lovel=1
offset=8885
pitch_keycenter=d4
sample=Cellos_min3rd_PP_D4.opus
</region>

<region>
hikey=d3
hivel=127
lokey=c#3
loop_end=240712
loop_mode=loop_continuous
loop_start=85773
loop_xfade=38734
lovel=1
offset=12568
pitch_keycenter=d3
sample=Cellos_min3rd_PP_D3.opus
</region>

<region>
hikey=d2
hivel=127
lokey=c#2
loop_end=264739
loop_mode=loop_continuous
loop_start=94334
loop_xfade=42601
lovel=1
offset=12133
pitch_keycenter=d2
sample=Cellos_min3rd_PP_D2.opus
</region>

<region>
hikey=c5
hivel=127
lokey=b4
loop_end=270360
loop_mode=loop_continuous
loop_start=96337
loop_xfade=43505
lovel=1
offset=19373
pitch_keycenter=c5
sample=Cellos_min3rd_PP_C5.opus
</region>

<region>
hikey=c4
hivel=127
lokey=b3
loop_end=281778
loop_mode=loop_continuous
loop_start=100406
loop_xfade=45343
lovel=1
offset=25306
pitch_keycenter=c4
sample=Cellos_min3rd_PP_C4.opus
</region>

<region>
hikey=c3
hivel=127
lokey=b2
loop_end=270777
loop_mode=loop_continuous
loop_start=96486
loop_xfade=43572
lovel=1
offset=15977
pitch_keycenter=c3
sample=Cellos_min3rd_PP_C3.opus
</region>

<region>
hivel=127
key=c2
loop_end=268950
loop_mode=loop_continuous
loop_start=95835
loop_xfade=43278
lovel=1
sample=Cellos_min3rd_PP_C2.opus
</region>

<region>
hikey=a#4
hivel=127
lokey=a4
loop_end=282400
loop_mode=loop_continuous
loop_start=100627
loop_xfade=45443
lovel=1
offset=18505
pitch_keycenter=a#4
sample=Cellos_min3rd_PP_A#4.opus
</region>

<region>
hikey=a#3
hivel=127
lokey=a3
loop_end=281814
loop_mode=loop_continuous
loop_start=100419
loop_xfade=45348
lovel=1
offset=20492
pitch_keycenter=a#3
sample=Cellos_min3rd_PP_A#3.opus
</region>

<region>
hikey=a#2
hivel=127
lokey=a2
loop_end=278070
loop_mode=loop_continuous
loop_start=99084
loop_xfade=44746
lovel=1
offset=12000
pitch_keycenter=a#2
sample=Cellos_min3rd_PP_A#2.opus
</region>
</group>

<group>
group_label=FF
xf_cccurve=gain
xfin_hicc1=127
xfin_locc1=64
xfout_hicc1=127
xfout_locc1=127

<region>
hikey=g#4
hivel=127
lokey=g4
loop_end=230071
loop_mode=loop_continuous
loop_start=81981
loop_xfade=37022
lovel=1
offset=280
pitch_keycenter=g#4
sample=Cellos_min3rd_FF_G#4.opus
</region>

<region>
hikey=g#3
hivel=127
lokey=g3
loop_end=229771
loop_mode=loop_continuous
loop_start=81874
loop_xfade=36974
lovel=1
offset=1061
pitch_keycenter=g#3
sample=Cellos_min3rd_FF_G#3.opus
</region>

<region>
hikey=g#2
hivel=127
lokey=g2
loop_end=218954
loop_mode=loop_continuous
loop_start=78020
loop_xfade=35233
lovel=1
offset=157
pitch_keycenter=g#2
sample=Cellos_min3rd_FF_G#2.opus
</region>

<region>
hikey=f#4
hivel=127
lokey=f4
loop_end=230900
loop_mode=loop_continuous
loop_start=82276
loop_xfade=37156
lovel=1
offset=825
pitch_keycenter=f#4
sample=Cellos_min3rd_FF_F#4.opus
</region>

<region>
hikey=f#3
hivel=127
lokey=f3
loop_end=223349
loop_mode=loop_continuous
loop_start=79586
loop_xfade=35940
lovel=1
offset=684
pitch_keycenter=f#3
sample=Cellos_min3rd_FF_F#3.opus
</region>

<region>
hikey=f#2
hivel=127
lokey=f2
loop_end=227321
loop_mode=loop_continuous
loop_start=81001
loop_xfade=36580
lovel=1
pitch_keycenter=f#2
sample=Cellos_min3rd_FF_F#2.opus
</region>

<region>
hikey=C#6
hivel=127
lokey=d#5
loop_end=234121
loop_mode=loop_continuous
loop_start=83424
loop_xfade=37674
lovel=1
offset=1116
pitch_keycenter=E5
sample=Cellos_min3rd_FF_E5.opus
</region>

<region>
hikey=e4
hivel=127
lokey=d#4
loop_end=232581
loop_mode=loop_continuous
loop_start=82876
loop_xfade=37426
lovel=1
offset=445
pitch_keycenter=e4
sample=Cellos_min3rd_FF_E4.opus
</region>

<region>
hikey=e3
hivel=127
lokey=d#3
loop_end=231010
loop_mode=loop_continuous
loop_start=82316
loop_xfade=37173
lovel=1
offset=916
pitch_keycenter=e3
sample=Cellos_min3rd_FF_E3.opus
</region>

<region>
hikey=e2
hivel=127
lokey=d#2
loop_end=223060
loop_mode=loop_continuous
loop_start=79483
loop_xfade=35894
lovel=1
pitch_keycenter=e2
sample=Cellos_min3rd_FF_E2.opus
</region>

<region>
hikey=d5
hivel=127
lokey=c#5
loop_end=232488
loop_mode=loop_continuous
loop_start=82842
loop_xfade=37411
lovel=1
offset=135
pitch_keycenter=d5
sample=Cellos_min3rd_FF_D5.opus
</region>

<region>
hikey=d4
hivel=127
lokey=c#4
loop_end=232387
loop_mode=loop_continuous
loop_start=82806
loop_xfade=37395
lovel=1
offset=1324
pitch_keycenter=d4
sample=Cellos_min3rd_FF_D4.opus
</region>

<region>
hikey=d3
hivel=127
lokey=c#3
loop_end=229415
loop_mode=loop_continuous
loop_start=81747
loop_xfade=36917
lovel=1
pitch_keycenter=d3
sample=Cellos_min3rd_FF_D3.opus
</region>

<region>
hikey=d2
hivel=127
lokey=c#2
loop_end=222920
loop_mode=loop_continuous
loop_start=79433
loop_xfade=35871
lovel=1
pitch_keycenter=d2
sample=Cellos_min3rd_FF_D2.opus
</region>

<region>
hikey=c5
hivel=127
lokey=b4
loop_end=227870
loop_mode=loop_continuous
loop_start=81197
loop_xfade=36668
lovel=1
offset=489
pitch_keycenter=c5
sample=Cellos_min3rd_FF_C5.opus
</region>

<region>
hikey=c4
hivel=127
lokey=b3
loop_end=225420
loop_mode=loop_continuous
loop_start=80324
loop_xfade=36274
lovel=1
offset=823
pitch_keycenter=c4
sample=Cellos_min3rd_FF_C4.opus
</region>

<region>
hikey=c3
hivel=127
lokey=b2
loop_end=238098
loop_mode=loop_continuous
loop_start=84841
loop_xfade=38314
lovel=1
offset=1007
pitch_keycenter=c3
sample=Cellos_min3rd_FF_C3.opus
</region>

<region>
hivel=127
key=c2
loop_end=234572
loop_mode=loop_continuous
loop_start=83585
loop_xfade=37746
lovel=1
offset=1712
sample=Cellos_min3rd_FF_C2.opus
</region>

<region>
hikey=a#4
hivel=127
lokey=a4
loop_end=230559
loop_mode=loop_continuous
loop_start=82155
loop_xfade=37101
lovel=1
offset=3683
pitch_keycenter=a#4
sample=Cellos_min3rd_FF_A#4.opus
</region>

<region>
hikey=a#3
hivel=127
lokey=a3
loop_end=227130
loop_mode=loop_continuous
loop_start=80933
loop_xfade=36549
lovel=1
offset=880
pitch_keycenter=a#3
sample=Cellos_min3rd_FF_A#3.opus
</region>

<region>
hikey=a#2
hivel=127
lokey=a2
loop_end=220342
loop_mode=loop_continuous
loop_start=78514
loop_xfade=35457
lovel=1
offset=362
pitch_keycenter=a#2
sample=Cellos_min3rd_FF_A#2.opus
</region>
</group>